<?xml version="1.0" encoding="iso-8859-1"?>
<!-- Generator: Adobe Illustrator 19.0.0, SVG Export Plug-In . SVG Version: 6.00 Build 0)  -->
<svg version="1.1" id="Layer_1" xmlns="http://www.w3.org/2000/svg" xmlns:xlink="http://www.w3.org/1999/xlink" x="0px" y="0px"
	 viewBox="0 0 512 512" style="enable-background:new 0 0 512 512;" xml:space="preserve">
<polygon style="fill:#717272;" points="384.015,17.067 384.015,51.2 147.641,51.2 198.841,17.067 "/>
<path style="fill:#FFFF01;" d="M315.321,485.205l-4.864,9.728h-57.685l-4.864-9.728l7.936-39.765
	c0.085-0.597,0.171-1.109,0.171-1.707V282.283l7.168-43.349h36.779l7.253,43.349v161.451c0,0.597,0,1.109,0.171,1.707
	L315.321,485.205z"/>
<rect x="273.056" y="68.267" style="fill:#FFFF01;" width="17.067" height="153.6"/>
<path d="M392.548,0H196.281c-1.707,0-3.328,0.512-4.779,1.451l-76.8,51.2c-3.072,2.048-4.523,5.973-3.413,9.557
	c1.109,3.584,4.437,6.059,8.192,6.059h136.533v153.6c-4.181,0-7.765,2.987-8.448,7.168l-8.533,51.2
	c-0.085,0.427-0.085,0.939-0.085,1.365v161.28l-8.363,41.813c-0.427,1.877-0.171,3.84,0.683,5.547l8.533,17.067
	c1.451,2.901,4.437,4.693,7.68,4.693h68.267c3.243,0,6.144-1.792,7.595-4.693l8.533-17.067c0.853-1.707,1.109-3.669,0.768-5.547
	l-8.363-41.813V281.6c0-0.427-0.085-0.939-0.171-1.365l-8.533-51.2c-0.683-4.181-4.181-7.168-8.363-7.168v-153.6h85.333
	c4.693,0,8.533-3.84,8.533-8.533v-51.2C401.081,3.84,397.241,0,392.548,0z M307.385,445.44l7.936,39.765l-4.864,9.728h-57.685
	l-4.864-9.728l7.936-39.765c0.085-0.597,0.171-1.109,0.171-1.707V282.283l7.168-43.349h36.779l7.253,43.349v161.451
	C307.215,444.331,307.215,444.843,307.385,445.44z M273.081,221.867v-153.6h17.067v153.6H273.081z M384.015,51.2H147.641
	l51.2-34.133h185.173V51.2z"/>
<path style="fill:#2979FF;" d="M307.385,445.44c-0.171-0.597-0.171-1.109-0.171-1.707V282.283l-7.253-43.349h-36.779l-1.408,8.533
	h29.201l7.253,43.349v161.451c0,0.597,0,1.109,0.171,1.707l7.936,39.765l-0.597,1.195h4.719l4.864-9.728L307.385,445.44z"/>
<polygon style="fill:#90A4AE;" points="273.081,68.267 273.081,76.8 281.162,76.8 281.162,221.867 290.148,221.867 290.148,68.267 
	"/>
<polygon style="fill:#555656;" points="375.456,17.067 375.456,42.667 160.441,42.667 147.641,51.2 384.015,51.2 384.015,17.067 "/>
<g>
</g>
<g>
</g>
<g>
</g>
<g>
</g>
<g>
</g>
<g>
</g>
<g>
</g>
<g>
</g>
<g>
</g>
<g>
</g>
<g>
</g>
<g>
</g>
<g>
</g>
<g>
</g>
<g>
</g>
</svg>
